<?xml version="1.0" ?><svg id="Capa_1" style="enable-background:new 0 0 512 512;" version="1.1" viewBox="0 0 512 512" xml:space="preserve" xmlns="http://www.w3.org/2000/svg" xmlns:xlink="http://www.w3.org/1999/xlink"><g><g><g><path d="M416,0H95.999C79.458,0,66,13.457,66,29.999v452.002C66,498.543,79.458,512,95.999,512h320c16.543,0,30-13.457,30-29.999     V29.999C446,13.457,432.543,0,416,0z M165.999,20h180.002v19.999h-0.001h-21.035c-5.523,0-10,4.478-10,10c0,5.522,4.477,10,10,10     h21.035V110c0,5.514-4.486,9.999-10.002,9.999H176.001c-5.515,0-10.001-4.485-10.001-9.999V20z M86,29.999     C86,24.485,90.486,20,95.999,20h50v90c0,16.542,13.458,29.999,30.001,29.999h160c16.543,0,30.002-13.457,30.002-29.999V20H416     c5.514,0,9.999,4.485,9.999,9.999V246H325.275c-4.869-33.877-34.072-60.001-69.273-60.001c-35.202,0-64.406,26.124-69.274,60.001     H86V29.999z M304.994,266c-4.645,22.796-24.847,40.002-48.992,40.002c-24.146,0-44.349-17.206-48.994-40.002H304.994z      M207.007,246c4.646-22.795,24.848-40.001,48.994-40.001s44.348,17.206,48.992,40.001H207.007z M346.002,492H165.999v-19.998     h21.033c5.523,0,10-4.478,10-10c0-5.523-4.477-10-10-10h-21.033V402c0-5.514,4.486-9.999,10.001-9.999h160     c5.516,0,10.002,4.485,10.002,9.999V492z M426,482.001c0,5.514-4.486,9.999-10,9.999h-49.999v-90     c0-16.542-13.459-29.999-30.002-29.999H176.001c-16.543,0-30.001,13.457-30.001,29.999v90h-50c-5.514,0-9.999-4.485-9.999-9.999     V266h100.727c4.868,33.878,34.071,60.002,69.274,60.002c35.201,0,64.404-26.124,69.273-60.002H426V482.001z"/><path d="M216.001,452.006h-0.236c-5.523,0-10,4.478-10,10c0,5.523,4.477,10,10,10h0.236c5.522,0,10-4.477,10-10     S221.523,452.006,216.001,452.006z"/><path d="M296,59.999h0.236c5.522,0,10-4.478,10-10c0-5.522-4.478-10-10-10H296c-5.523,0-10,4.478-10,10     C286,55.521,290.476,59.999,296,59.999z"/></g></g></g><g/><g/><g/><g/><g/><g/><g/><g/><g/><g/><g/><g/><g/><g/><g/></svg>